<?xml version="1.0" standalone="no"?>
<!DOCTYPE svg PUBLIC "-//W3C//DTD SVG 20010904//EN"
    "http://www.w3.org/TR/2001/REC-SVG-20010904/DTD/svg10.dtd">
<svg version="1.0" xmlns="http://www.w3.org/2000/svg"
    width="304.000000pt" height="304.000000pt" viewBox="0 0 304.000000 304.000000"
    preserveAspectRatio="xMidYMid meet">
<metadata>
Created by potrace 1.14, written by Peter Selinger 2001-2017
</metadata>
<g transform="translate(0.000000,304.000000) scale(0.100000,-0.100000)"
fill="#000000" stroke="none">
<path d="M1094 2271 c-68 -41 -64 0 -64 -694 0 -614 0 -630 20 -657 25 -36 98
-65 141 -56 44 9 89 44 105 82 11 27 14 134 14 564 l0 530 210 0 210 0 0 -532
c0 -488 2 -536 18 -567 36 -73 111 -98 184 -62 82 39 78 0 78 696 0 680 2 656
-63 695 -30 19 -53 20 -427 20 -371 0 -397 -1 -426 -19z"/>
</g>
</svg>
