<svg>
    <symbol id="academy" xmlns="http://www.w3.org/2000/svg" viewBox="0 0 27 34"><defs/><path d="M13.64.1h-.14L0 1.46v24.1l13.5 7.83L27 25.57V1.47L13.64.1zm11.6 24.49l-11.74 6.8-11.73-6.8V14.7l11.68 6.77.02 1.23-8.02-4.65v1.2l8.04 4.71.02 1.26-8.05-4.66v1.2l8.04 4.71 8.12-4.73v-5.1l3.62-2.1v10.04zm0-11.33L22 15.1l-1.48.86-7.06-4.1-.01 1.2 6.04 3.5-.06.03-.13.07-.86.49-4.98-2.9-.01 1.2 3.93 2.29-.93.6h-.02l-2.97-1.7-.01 1.2 1.94 1.11-1.98 1.17L1.8 13.38l11.63-6.81 11.8 6.7zm0-1.2L13.43 5.3 1.77 12.06V3L13.5 1.8 25.23 3v9.05z"/></symbol>
    <symbol id="airplane" xmlns="http://www.w3.org/2000/svg" viewBox="0 0 18 20"><defs/><path d="M15.78.1c-.73.17-1.46.34-1.73.82l-2.1 4.2L.62 7.8.17 9.15l8.66.82-1.47 3.63-3.28.78-.83 1.43 2.37.26.27 1.17c.12.41.55.69.9.6l1.1-.26 1.27 2.16.83-1.43-.81-3.5 2.37-3.03 4.54 7.96.91-1.04-2.79-12.07 2.57-3.9c.27-.47.1-1.25-.09-2.03-.09-.39-.54-.7-.9-.6z"/></symbol>
    <symbol id="bicycle" xmlns="http://www.w3.org/2000/svg" viewBox="0 0 25 24"><defs/><path d="M18.3 21a4.21 4.21 0 01-3.92-2.66 4.37 4.37 0 01.92-4.7 4.23 4.23 0 017.26 3.05c0 1.14-.45 2.24-1.25 3.05-.8.8-1.88 1.26-3 1.26zm0-7.13a2.75 2.75 0 00-2.55 1.74 2.85 2.85 0 00.6 3.07 2.76 2.76 0 004.73-2c0-.74-.3-1.45-.81-1.98a2.76 2.76 0 00-1.96-.82zM6.1 21a4.21 4.21 0 01-3.92-2.66 4.37 4.37 0 01.92-4.7 4.23 4.23 0 017.26 3.05c0 1.14-.45 2.24-1.25 3.05-.8.8-1.88 1.26-3 1.26zm0-7.13a2.75 2.75 0 00-2.56 1.74 2.85 2.85 0 00.6 3.07 2.76 2.76 0 004.74-2c0-.74-.3-1.45-.82-1.98a2.76 2.76 0 00-1.96-.82zM15.16 6a1.46 1.46 0 001.37-.93c.08-.18.11-.38.11-.57a1.5 1.5 0 00-.9-1.39 1.46 1.46 0 00-1.93.81 1.52 1.52 0 00.79 1.96c.18.08.37.12.56.12z"/><path d="M17.36 9h-2.02a.18.18 0 01-.16-.1L13.7 6.18a1.45 1.45 0 00-1.05-.77 1.41 1.41 0 00-1.23.4L8.2 9.11c-.27.28-.43.66-.43 1.05 0 .82.58 1.1.85 1.27a146.32 146.32 0 012.82 1.72c.02.02.03.06.03.09v3.24c0 .4.3.75.7.77a.73.73 0 00.72-.45c.04-.1.06-.2.06-.3v-4.03a.76.76 0 00-.31-.61l-1.71-1.25a.19.19 0 01-.08-.13.19.19 0 01.05-.15l1.94-2.1a.19.19 0 01.16-.06.18.18 0 01.14.1l1 1.84a.74.74 0 00.65.39h2.6a.73.73 0 00.53-.23.75.75 0 00-.56-1.27z"/></symbol>
    <symbol id="buss" xmlns="http://www.w3.org/2000/svg" viewBox="0 0 18 21"><defs/><path d="M4.34 13.95c0-.38-.14-.7-.42-.97a1.4 1.4 0 00-1-.4c-.4 0-.73.13-1 .4-.28.27-.42.59-.42.97s.14.7.42.97c.27.27.6.4 1 .4s.73-.13 1-.4c.28-.27.42-.6.42-.97zm11.36 0c0-.38-.14-.7-.42-.97a1.4 1.4 0 00-1-.4c-.4 0-.73.13-1 .4-.28.27-.42.59-.42.97s.14.7.41.97c.28.27.61.4 1 .4.4 0 .73-.13 1.01-.4s.42-.6.42-.97zm-.51-4.24l-.8-4.12a.7.7 0 00-.25-.4.7.7 0 00-.45-.16H3.5a.7.7 0 00-.45.16.7.7 0 00-.25.4l-.8 4.12c-.04.21.02.4.16.56.14.17.32.25.54.25h11.78c.22 0 .4-.08.54-.25.14-.16.2-.35.16-.56zm-2.51-6.56a.52.52 0 00-.53-.51h-7.1a.52.52 0 00-.38.14c-.1.1-.15.23-.15.37 0 .14.05.26.15.36.1.1.23.15.38.15h7.1a.52.52 0 00.53-.51zm4.43 7.77v6.46H15.7v1.37c0 .38-.14.7-.42.97-.28.27-.61.4-1 .4-.4 0-.73-.13-1-.4a1.3 1.3 0 01-.42-.97v-1.37H4.34v1.37c0 .38-.14.7-.42.97-.27.27-.6.4-1 .4s-.73-.13-1-.4a1.3 1.3 0 01-.42-.97v-1.37H.08v-6.46c0-.8.1-1.6.28-2.4L1.5 3.67c.07-.55.43-1.04 1.08-1.47.66-.42 1.5-.73 2.55-.95A17.3 17.3 0 018.6.92c1.26 0 2.42.1 3.46.32 1.05.22 1.9.53 2.55.95.66.43 1.02.92 1.09 1.47l1.16 4.87c.17.73.25 1.52.25 2.39z"/></symbol>
    <symbol id="facebook" xmlns="http://www.w3.org/2000/svg" viewBox="0 0 11 21"><defs/><path d="M7.49 20.81H2.13v-9.67H0V6.35h2.07c-.16-2.17.23-3.75 1.2-4.83A4.88 4.88 0 016.86 0h3.75v4.61H7.67a4.7 4.7 0 00-.2 1.74h3.15v4.79H7.46l.02 9.67zM3.32 19.7h2.97V10h3.14V7.5H6.29v-.57c0-1.5 0-2.84.78-3.34l.15-.1h2.2V1.12H6.9a3.82 3.82 0 00-2.74 1.13c-.79.92-1.11 2.47-.87 4.6l.08.63h-2.2V10h2.15v9.68z"/></symbol>
    <symbol id="filter" xmlns="http://www.w3.org/2000/svg" viewBox="0 0 15 10"><defs/><path d="M7.17 0H15v2H7.17zM7.17 8H15v2H7.17zM0 4h7.83v2H0zM3.91 0h1.96v2H3.91zM3.91 8h1.96v2H3.91zM9.13 4h1.96v2H9.13zM0 0h2.61v2H0zM0 8h2.61v2H0zM12.39 4H15v2h-2.61z"/></symbol>
    <symbol id="heart" xmlns="http://www.w3.org/2000/svg" viewBox="0 0 21 19"><defs/><path d="M10.26 7.12l1.12-2.34a7.7 7.7 0 011.44-2.1 3.44 3.44 0 012.44-1.12 3.8 3.8 0 013.76 3.84c0 1.59-.7 2.7-2.34 4.42-.42.44-.9.91-1.43 1.44a67.67 67.67 0 00-5 5.33 67.65 67.65 0 00-4.98-5.33c-.54-.53-1.02-1-1.44-1.44C2.2 8.11 1.5 7 1.5 5.4a3.8 3.8 0 013.76-3.84c.97 0 1.77.46 2.44 1.12a7.7 7.7 0 011.45 2.1l1.12 2.34zm.49 10.9a.65.65 0 01-.5.23.62.62 0 01-.48-.24c-2-2.5-3.82-4.28-5.32-5.75C1.87 9.7.25 8.1.25 5.4a5.08 5.08 0 015-5.15c2 0 3.4 1.38 4.26 2.64.33.48.57.94.75 1.3.21-.45.46-.89.74-1.3.86-1.26 2.26-2.64 4.26-2.64 2.77 0 5.01 2.3 5.01 5.15 0 2.71-1.63 4.31-4.21 6.86-1.5 1.47-3.3 3.26-5.31 5.75z" clip-rule="evenodd"/></symbol>
    <symbol id="hike-man" xmlns="http://www.w3.org/2000/svg" viewBox="0 0 21 24"><defs/><path d="M14.98 5.76c.95 0 1.72-.86 1.72-1.92s-.77-1.92-1.72-1.92-1.73.86-1.73 1.92.78 1.92 1.73 1.92zM13.92 10.53c.2.33.48.58.81.72.34.15.7.17 1.04.08l2.86-.8-.42-1.86-2.85.8-1.2-1.99a1.73 1.73 0 00-1.09-.82l-3.3-.74a1.56 1.56 0 00-1.1.16c-.34.18-.61.49-.78.87l-1.43 3.18 1.54.86L9.43 7.8l1.69.38-4.38 8.14H2.93v1.92h3.81c.6 0 1.17-.36 1.48-.93l1.65-3.07 4.45 1 1.56 5.22 1.63-.6-1.56-5.23c-.1-.33-.27-.61-.5-.84-.22-.22-.5-.37-.8-.44l-2.61-.58 1.52-2.84.36.6z"/></symbol>
    <symbol id="instagram" xmlns="http://www.w3.org/2000/svg" viewBox="0 0 18 18"><defs/><g><path d="M12.96 1.8a3.25 3.25 0 013.24 3.24v7.92a3.25 3.25 0 01-3.24 3.24H5.04a3.25 3.25 0 01-3.23-3.24V5.04A3.25 3.25 0 015.04 1.8h7.92zm0-1.08H5.04A4.32 4.32 0 00.72 5.04v7.92a4.32 4.32 0 004.32 4.32h7.92a4.32 4.32 0 004.32-4.32V5.04A4.32 4.32 0 0012.96.72z"/><path d="M9 5.82a3.19 3.19 0 110 6.38 3.19 3.19 0 010-6.38zm0-1.08a4.27 4.27 0 100 8.54 4.27 4.27 0 000-8.54zM13.43 5.56a.96.96 0 100-1.93.96.96 0 000 1.93z"/></g></symbol>
    <symbol id="mail" xmlns="http://www.w3.org/2000/svg" viewBox="0 0 19 13"><defs/><path fill-rule="evenodd" d="M16.14 10.47L11.8 6.5l4.33-3.97-.6-.63-6.29 5.77-6.3-5.77-.59.63L6.7 6.5l-4.33 3.97.6.63 4.37-4.01 1.92 1.75 1.92-1.75 4.38 4 .59-.62zM1.58.25C.77.25.1.95.1 1.81v9.38c0 .86.65 1.56 1.47 1.56h15.34c.81 0 1.47-.7 1.47-1.56V1.81c0-.86-.65-1.56-1.47-1.56H1.58z" clip-rule="evenodd"/></symbol>
    <symbol id="map-pin" xmlns="http://www.w3.org/2000/svg" viewBox="0 0 17 21"><defs/><path d="M8.5 0A7.88 7.88 0 00.62 7.88c0 5.05 3.8 7.26 4.65 8.27C7.29 18.58 7.4 21 8.5 21s1.21-2.42 3.23-4.85c.84-1 4.64-3.22 4.64-8.27A7.88 7.88 0 008.5 0zm0 13.13a5.25 5.25 0 110-10.5 5.25 5.25 0 010 10.5zm0-7.88a2.63 2.63 0 100 5.25 2.63 2.63 0 000-5.25z"/></symbol>
    <symbol id="phone" xmlns="http://www.w3.org/2000/svg" viewBox="0 0 17 15"><defs/><path fill-rule="evenodd" d="M8.5.09C5.7.09 2.9.56 1.88 1.5 1.04 2.28.76 3.66.66 4.54l-.01.12c0 .34.3.62.65.62l2.57-.2h.07c.35-.02.64-.29.64-.63V3.24c0-.38.32-.68.72-.68h6.4c.4 0 .72.3.72.68v1.21c0 .34.29.61.64.62l.07.01 2.57.2c.36 0 .65-.28.65-.62l-.01-.12c-.1-.88-.38-2.26-1.22-3.04C14.1.56 11.3.1 8.5.1zm0 8.03c-.72 0-1.3.55-1.3 1.23 0 .69.58 1.24 1.3 1.24.72 0 1.3-.55 1.3-1.24 0-.68-.58-1.23-1.3-1.23zm-.98-2.78v-.77a.8.8 0 00-.82-.78.8.8 0 00-.82.78v.77l-4.4 4.45c-.31.28-.5.67-.5 1.1v1.24c0 .69.58 1.24 1.3 1.24h.33v.77c0 .43.37.77.82.77a.8.8 0 00.82-.77v-.77h8.5v.77c0 .43.37.77.82.77a.8.8 0 00.82-.77v-.77h.32c.73 0 1.31-.55 1.31-1.24V10.9c0-.43-.19-.82-.5-1.1l-4.4-4.45v-.77a.8.8 0 00-.82-.78.8.8 0 00-.82.78v.77H7.52zm.98 1.54c1.45 0 2.62 1.1 2.62 2.47a2.55 2.55 0 01-2.62 2.47 2.55 2.55 0 01-2.62-2.47A2.55 2.55 0 018.5 6.88z" clip-rule="evenodd"/></symbol>
    <symbol id="user" xmlns="http://www.w3.org/2000/svg" viewBox="0 0 12 12"><defs/><path d="M3.38 2.93A2.7 2.7 0 006 5.69a2.7 2.7 0 002.63-2.76A2.7 2.7 0 006 .17a2.7 2.7 0 00-2.63 2.76zm7.29 8.9h.58v-.61a4.2 4.2 0 00-4.08-4.3H4.83a4.2 4.2 0 00-4.08 4.3v.61h9.92z"/></symbol>
    <symbol id="VK" xmlns="http://www.w3.org/2000/svg" viewBox="0 0 23 12"><defs/><path d="M17.77 11.83a2.98 2.98 0 01-1.55-.47 7.56 7.56 0 01-1.32-1.15c-.32-.33-.87-.88-1.07-.88-.21 0-.36.69-.35 1.18 0 .33-.12.66-.35.9-.26.22-.57.35-.9.38H10.8c-2.05-.05-4-.85-5.51-2.25C2.56 7 .2 2.18.12 1.97a1.01 1.01 0 01.1-1.1C.52.61.88.48 1.25.5h3.12c.24.04.48.13.7.26.2.14.36.33.46.55.32.7.7 1.36 1.1 2 .97 1.5 1.4 1.85 1.56 1.92.17-.7.22-1.43.14-2.15.03-.33-.03-.66-.15-.96a.98.98 0 00-.58-.22l-.54-.51c-.1-.5.44-.93.82-1.1A6.38 6.38 0 0110.2.02h.52c.54-.01 1.07.04 1.6.15 1.26.27 1.21 1.3 1.16 2.49 0 .34-.03.75-.03 1.21v.36c-.03.33-.01.66.06.98a6.8 6.8 0 001.54-1.86c.43-.67.8-1.38 1.13-2.1a1.18 1.18 0 011.18-.72h3.46c.74 0 1.18.22 1.36.64.18.42.12 1.25-1.75 3.46l-.74.85a5.5 5.5 0 00-.92 1.19c.28.32.6.6.95.85.85.65 1.6 1.43 2.22 2.3a1.2 1.2 0 01.2 1.27 1.71 1.71 0 01-1.4.75l-2.81.03-.17-.03zM13.83 8.2c.66 0 1.24.6 1.86 1.22.33.37.7.7 1.11.97.31.21.67.32 1.04.32h.07l2.82-.04c.14 0 .28-.04.4-.1l-.07-.12a9.86 9.86 0 00-1.99-2.04c-.88-.75-1.33-1.1-1.39-1.68-.05-.58.37-1.08 1.2-2.04l.74-.83a8.05 8.05 0 001.52-2.21 4.16 4.16 0 00-.5 0H17.4a.4.4 0 00-.18 0c-.34.8-.75 1.56-1.22 2.29-1.4 2.11-2.06 2.4-2.53 2.4a.88.88 0 01-.41-.1c-.75-.44-.75-1.39-.7-2.08v-.32c0-.49 0-.9.03-1.27.06-1.26 0-1.27-.28-1.33-.45-.1-.91-.14-1.38-.12h-.5c-.48-.01-.95.01-1.42.07.07.05.13.12.19.19.3.49.46 1.06.43 1.63.1 1.24.05 2.85-.74 3.24-.14.07-.29.1-.44.1-.7 0-1.38-.66-2.54-2.44-.45-.69-.85-1.4-1.2-2.14l-.05-.08a.9.9 0 00-.24-.08H1.2c.44.92 2.51 4.97 4.84 7.09 1.3 1.2 2.99 1.9 4.76 1.97h1.37a.74.74 0 00.2-.07v-.07c0-.2 0-1.95 1.17-2.25.1-.04.19-.06.29-.08z"/></symbol>
    <symbol id="arrow" xmlns="http://www.w3.org/2000/svg" viewBox="0 0 8 11"><defs/><line x1="50%" x2="50%" y2="90%" fill="none" stroke-linecap="round"/><line x1="10%" x2="50%" y1="60%" y2="90%" fill="none" stroke-linecap="round"/><line x1="90%" x2="50%" y1="60%" y2="90%" fill="none" stroke-linecap="round"/></symbol>
    <symbol id="back" xmlns="http://www.w3.org/2000/svg" viewBox="0 0 32 16"><defs/><path fill-rule="evenodd" d="M4 16h24a4 4 0 004-4V7a4 4 0 00-4-4H4v2h24a2 2 0 012 2v5a2 2 0 01-2 2H4v2z" clip-rule="evenodd"/><path d="M0 4L9 .54v6.92L0 4z"/></symbol>
    <symbol id="check" xmlns="http://www.w3.org/2000/svg" viewBox="0 0 9 9"><defs/><path d="M2.83 8.46L.4 5.81V4.72c0 .03 0-.03 0 0V3.64l2.44 2.35a.2.2 0 00.3 0l5.2-5.6v2.53L3.86 7.7l-.72.76a.2.2 0 01-.3 0z"/></symbol>
    <symbol id="corner" xmlns="http://www.w3.org/2000/svg" viewBox="0 0 10 19"><defs/><path d="M1.07 18.37c.1.11.22.2.34.26a.96.96 0 00.82 0c.13-.06.24-.15.34-.26l7.06-7.97c.08-.1.15-.2.19-.31a1.06 1.06 0 00-.19-1.04L2.57 1.07a.98.98 0 00-1.5 0c-.42.47.25 1.29.67 1.76l6.08 6.9-6.4 7.24c-.41.46-.77.94-.35 1.4z"/></symbol>
    <symbol id="delete" xmlns="http://www.w3.org/2000/svg" viewBox="0 0 9 9"><defs/><path stroke-linecap="round" stroke-linejoin="round" d="M7.88 1.13L1.13 7.88M1.13 1.13l6.75 6.75"/></symbol>
    <symbol id="handset" xmlns="http://www.w3.org/2000/svg" viewBox="0 0 16 18"><defs/><path d="M11.1 8.46c0 .18.16.33.35.33.18 0 .34-.15.34-.33 0-1.9-1.56-3.44-3.47-3.44a.34.34 0 00-.35.34c0 .2.16.34.35.34a2.78 2.78 0 012.78 2.76zM8.32.9a.34.34 0 00-.35.34c0 .18.16.33.35.33a6.93 6.93 0 016.96 6.89c0 .18.15.33.34.33.19 0 .34-.15.34-.33A7.61 7.61 0 008.32.9zm3.33 11.11l-.45.24c-.75.41-1.34 1.53-2.27.69L6.5 10.5 4.4 8.46c-1.06-1.34.13-1.65.54-2.4l.24-.44a2.57 2.57 0 00-.45-3.1c-.5-.49-1.16-.76-1.87-.76-.7 0-1.37.27-1.87.76l-.17.18c-.93.91-1.03 2.48-.3 4.42A16.39 16.39 0 004.4 12.8c2.77 2.73 5.85 4.31 8.06 4.31.88 0 1.62-.25 2.14-.77l.18-.17a2.6 2.6 0 000-3.7c-.82-.81-2.1-1-3.13-.45z"/></symbol>
    <symbol id="mail-smal" xmlns="http://www.w3.org/2000/svg" viewBox="0 0 16 14"><defs/><path d="M1.26 2.6l6 3.76c.2.13.46.19.72.19.27 0 .53-.06.73-.19l6-3.76c.39-.25.76-1.2.04-1.2H1.22c-.72 0-.35.95.04 1.2zm13.63 2.06L8.71 8.4a1.2 1.2 0 01-.73.2 1.2 1.2 0 01-.72-.2L1.1 4.66c-.31-.2-.31.03-.31.2v6.8c0 .4.45.94.8.94h12.8c.35 0 .8-.54.8-.93v-6.8c0-.18 0-.4-.3-.21z"/></symbol>
    <symbol id="plus" xmlns="http://www.w3.org/2000/svg" viewBox="0 0 14 14"><defs/><path stroke-width="2" d="M7 0v14M0 7h14"/></symbol>
    <symbol id="rates" xmlns="http://www.w3.org/2000/svg" viewBox="0 0 28 28"><defs/><path d="M23.38 23.24V19.9a5.84 5.84 0 00-2.81-5.09c-.94-.67-2.95-.8-3.9-.8l-2.13 2.28.8 1.74v4.02L14 23.5l-1.34-1.47v-4.02l.94-1.74L11.32 14c-1.07 0-3.08.13-4.02.8a5.53 5.53 0 00-2 2.28 5.15 5.15 0 00-.68 2.81v3.35s3.49 1.48 9.38 1.48c5.9 0 9.38-1.48 9.38-1.48zM14 3.42c-2.54 0-4.02 2.41-3.62 5.09.4 2.68 1.74 4.55 3.62 4.55 1.88 0 3.21-1.87 3.62-4.55.4-2.81-1.08-5.1-3.62-5.1z"/></symbol>
</svg>
