<svg xmlns="http://www.w3.org/2000/svg" xmlns:xlink="http://www.w3.org/1999/xlink"><symbol id="add-countrie_icon" viewBox="0 0 14 14">
<line x1="7" x2="7" y2="14" stroke="#000000" stroke-width="2"/>
<line y1="7" x2="14" y2="7" stroke="#000000" stroke-width="2"/>
</symbol><symbol id="airplane_icon" viewBox="0 0 14 16">
<path opacity="0.15" d="M12.9146 0.927695C12.3249 1.05994 11.7325 1.19281 11.5121 1.55688L9.80651 4.7625L0.648283 6.81634L0.277232 7.84059L7.28531 8.46568L6.09628 11.2408L3.43851 11.8368L2.77123 12.9275L4.68861 13.1239L4.90725 14.0159C5.00521 14.3321 5.34902 14.5432 5.64248 14.4774L6.5284 14.2787L7.55537 15.9305L8.22266 14.8398L7.56673 12.1638L9.49099 9.85016L13.1627 15.9287L13.9031 15.1363L11.6435 5.91794L13.7185 2.94416C13.9416 2.57946 13.7961 1.98572 13.6499 1.38919C13.5774 1.09371 13.2081 0.861883 12.9146 0.927695Z" fill="#1D2E5B"/>
</symbol><symbol id="arrow-to-down_icon">
    <line x1="50%" x2="50%" y1="0" y2="90%" stroke="black" sroke-width="1" stroke-linecap="round" fill="none"/>
    <line x1="10%" x2="50%" y1="60%" y2="90%" stroke="black" sroke-width="1" stroke-linecap="round" fill="none"/>
    <line x1="90%" x2="50%" y1="60%" y2="90%" stroke="black" sroke-width="1" stroke-linecap="round" fill="none"/>
</symbol><symbol id="autostop_icon" viewBox="0 0 18 17">
<path opacity="0.15" d="M4.54498 11.0045C4.54498 10.6865 4.40784 10.4151 4.13358 10.1901C3.85931 9.96516 3.52836 9.85268 3.14073 9.85268C2.7531 9.85268 2.42216 9.96516 2.14789 10.1901C1.87362 10.4151 1.73649 10.6865 1.73649 11.0045C1.73649 11.3224 1.87362 11.5939 2.14789 11.8188C2.42216 12.0438 2.7531 12.1563 3.14073 12.1563C3.52836 12.1563 3.85931 12.0438 4.13358 11.8188C4.40784 11.5939 4.54498 11.3224 4.54498 11.0045ZM15.7789 11.0045C15.7789 10.6865 15.6418 10.4151 15.3675 10.1901C15.0933 9.96516 14.7623 9.85268 14.3747 9.85268C13.9871 9.85268 13.6561 9.96516 13.3818 10.1901C13.1076 10.4151 12.9704 10.6865 12.9704 11.0045C12.9704 11.3224 13.1076 11.5939 13.3818 11.8188C13.6561 12.0438 13.9871 12.1563 14.3747 12.1563C14.7623 12.1563 15.0933 12.0438 15.3675 11.8188C15.6418 11.5939 15.7789 11.3224 15.7789 11.0045ZM15.2743 7.44113L14.4844 3.98577C14.4478 3.8478 14.3655 3.73532 14.2376 3.64833C14.1096 3.56135 13.9615 3.51786 13.7932 3.51786H3.72218C3.55396 3.51786 3.40586 3.56135 3.27787 3.64833C3.14988 3.73532 3.0676 3.8478 3.03103 3.98577L2.24114 7.44113C2.20457 7.62109 2.25577 7.78006 2.39473 7.91804C2.53369 8.05601 2.71288 8.125 2.93229 8.125H14.5831C14.8025 8.125 14.9817 8.05601 15.1207 7.91804C15.2597 7.78006 15.3109 7.62109 15.2743 7.44113ZM12.7949 1.93415C12.7949 1.81417 12.7437 1.71219 12.6413 1.62821C12.5389 1.54422 12.4146 1.50223 12.2683 1.50223H5.2471C5.10082 1.50223 4.97649 1.54422 4.8741 1.62821C4.77171 1.71219 4.72051 1.81417 4.72051 1.93415C4.72051 2.05413 4.77171 2.15611 4.8741 2.24009C4.97649 2.32408 5.10082 2.36607 5.2471 2.36607H12.2683C12.4146 2.36607 12.5389 2.32408 12.6413 2.24009C12.7437 2.15611 12.7949 2.05413 12.7949 1.93415ZM17.1832 8.45794V13.8839H15.7789V15.0357C15.7789 15.3537 15.6418 15.6251 15.3675 15.8501C15.0933 16.075 14.7623 16.1875 14.3747 16.1875C13.9871 16.1875 13.6561 16.075 13.3818 15.8501C13.1076 15.6251 12.9704 15.3537 12.9704 15.0357V13.8839H4.54498V15.0357C4.54498 15.3537 4.40784 15.6251 4.13358 15.8501C3.85931 16.075 3.52836 16.1875 3.14073 16.1875C2.7531 16.1875 2.42216 16.075 2.14789 15.8501C1.87362 15.6251 1.73649 15.3537 1.73649 15.0357V13.8839H0.332245V8.45794C0.332245 7.78606 0.423667 7.11719 0.606511 6.45131L1.73649 2.36607C1.80231 1.89816 2.15886 1.48723 2.80613 1.1333C3.4534 0.779367 4.29448 0.512416 5.32938 0.33245C6.36428 0.152483 7.50706 0.0625 8.75771 0.0625C10.0084 0.0625 11.1511 0.152483 12.186 0.33245C13.2209 0.512416 14.062 0.779367 14.7093 1.1333C15.3566 1.48723 15.7131 1.89816 15.7789 2.36607L16.9309 6.45131C17.0991 7.0632 17.1832 7.73207 17.1832 8.45794Z" fill="#1D2E5B"/>
</symbol><symbol id="back-to-site-main_icon" viewBox="0 0 32 16">
<path fill-rule="evenodd" clip-rule="evenodd" d="M4 16H28C30.2091 16 32 14.2091 32 12V7C32 4.79086 30.2091 3 28 3H4V5H28C29.1046 5 30 5.89543 30 7V12C30 13.1046 29.1046 14 28 14H4V16Z" fill="white"/>
<path d="M0 4L9 0.535898V7.4641L0 4Z" fill="white"/>
</symbol><symbol id="bicycle_icon" viewBox="0 0 18 17">
<path opacity="0.15" d="M13.1047 14.1719C12.5056 14.1719 11.9199 14.0019 11.4218 13.6836C10.9237 13.3652 10.5354 12.9127 10.3061 12.3832C10.0769 11.8538 10.0169 11.2712 10.1338 10.7091C10.2506 10.1471 10.5391 9.63082 10.9628 9.2256C11.3864 8.82038 11.9262 8.54443 12.5138 8.43263C13.1014 8.32083 13.7104 8.37821 14.2639 8.59751C14.8174 8.81681 15.2905 9.18819 15.6234 9.66467C15.9562 10.1412 16.1339 10.7014 16.1339 11.2744C16.133 12.0426 15.8136 12.7791 15.2457 13.3223C14.6778 13.8655 13.9078 14.171 13.1047 14.1719V14.1719ZM13.1047 9.38477C12.714 9.38477 12.332 9.49559 12.0072 9.70323C11.6823 9.91087 11.4291 10.206 11.2795 10.5513C11.13 10.8966 11.0909 11.2765 11.1671 11.6431C11.2434 12.0096 11.4315 12.3463 11.7078 12.6106C11.9841 12.8749 12.3361 13.0548 12.7193 13.1278C13.1025 13.2007 13.4997 13.1632 13.8607 13.0202C14.2217 12.8772 14.5302 12.635 14.7473 12.3242C14.9644 12.0135 15.0803 11.6482 15.0803 11.2744C15.0796 10.7734 14.8713 10.2931 14.501 9.93888C14.1306 9.58462 13.6285 9.38535 13.1047 9.38477V9.38477Z" fill="#1D2E5B"/>
<path opacity="0.15" d="M4.41233 14.1719C3.81322 14.1719 3.22756 14.0019 2.72942 13.6836C2.23127 13.3652 1.84302 12.9127 1.61375 12.3832C1.38448 11.8538 1.32449 11.2712 1.44137 10.7091C1.55825 10.1471 1.84675 9.63082 2.27039 9.2256C2.69402 8.82038 3.23377 8.54443 3.82137 8.43263C4.40897 8.32083 5.01803 8.37821 5.57154 8.59751C6.12505 8.81681 6.59814 9.18819 6.93099 9.66467C7.26383 10.1412 7.44149 10.7014 7.44149 11.2744C7.44062 12.0426 7.1212 12.7791 6.55331 13.3223C5.98542 13.8655 5.21544 14.171 4.41233 14.1719V14.1719ZM4.41233 9.38477C4.0216 9.38477 3.63965 9.49559 3.31478 9.70323C2.9899 9.91087 2.73669 10.206 2.58717 10.5513C2.43764 10.8966 2.39852 11.2765 2.47475 11.6431C2.55097 12.0096 2.73913 12.3463 3.01541 12.6106C3.29169 12.8749 3.6437 13.0548 4.02692 13.1278C4.41014 13.2007 4.80735 13.1632 5.16834 13.0202C5.52932 12.8772 5.83786 12.635 6.05493 12.3242C6.27201 12.0135 6.38787 11.6482 6.38787 11.2744C6.38726 10.7734 6.17893 10.2931 5.80857 9.93888C5.43822 9.58462 4.93609 9.38535 4.41233 9.38477V9.38477Z" fill="#1D2E5B"/>
<path opacity="0.15" d="M10.8658 4.09375C11.0045 4.09421 11.142 4.06835 11.2703 4.01767C11.3986 3.96699 11.5151 3.89249 11.613 3.79848C11.711 3.70447 11.7885 3.59282 11.8411 3.46997C11.8937 3.34713 11.9203 3.21553 11.9194 3.08279C11.9209 2.95071 11.8949 2.81967 11.8429 2.69732C11.7908 2.57497 11.7138 2.46377 11.6163 2.37023C11.5189 2.27668 11.4028 2.20267 11.2751 2.15252C11.1474 2.10236 11.0104 2.07707 10.8723 2.07813C10.734 2.07771 10.5969 2.10337 10.4689 2.15364C10.3409 2.2039 10.2245 2.27779 10.1264 2.37108C10.0282 2.46437 9.95025 2.57524 9.8969 2.69736C9.84355 2.81947 9.81587 2.95044 9.81543 3.08279C9.815 3.21514 9.84183 3.34627 9.89438 3.4687C9.94693 3.59113 10.0242 3.70247 10.1217 3.79634C10.2192 3.89022 10.3351 3.9648 10.4628 4.01583C10.5905 4.06686 10.7274 4.09334 10.8658 4.09375V4.09375Z" fill="#1D2E5B"/>
<path opacity="0.15" d="M12.4314 6.10938H10.9906C10.9669 6.10938 10.9437 6.1033 10.9234 6.09178C10.903 6.08025 10.8863 6.0637 10.875 6.04387L9.82992 4.21186C9.75629 4.07571 9.65018 3.95806 9.52017 3.86843C9.39017 3.77881 9.23993 3.71972 9.08162 3.69595C8.9233 3.67218 8.76136 3.68441 8.6089 3.73163C8.45644 3.77886 8.31775 3.85975 8.20405 3.96778L5.90387 6.18496C5.71062 6.37363 5.60094 6.62633 5.59766 6.89043C5.59766 7.43843 6.01252 7.6337 6.20678 7.74392C7.14516 8.26106 7.80598 8.6393 8.16849 8.84937C8.18777 8.86059 8.2037 8.87636 8.21477 8.89517C8.22584 8.91397 8.23167 8.93518 8.23171 8.95676V11.1336C8.23171 11.4048 8.44968 11.6375 8.73317 11.6511C8.80434 11.6544 8.87547 11.6438 8.94226 11.62C9.00904 11.5963 9.07009 11.5598 9.12171 11.5128C9.17332 11.4658 9.21444 11.4093 9.24256 11.3467C9.27069 11.284 9.28524 11.2166 9.28533 11.1484V8.43995C9.28538 8.35995 9.26552 8.2811 9.22739 8.2099C9.18925 8.13871 9.13395 8.07722 9.06605 8.03052L7.8478 7.19246C7.83251 7.182 7.81973 7.16852 7.81034 7.15294C7.80095 7.13736 7.79515 7.12003 7.79334 7.10213C7.79154 7.08423 7.79375 7.06616 7.79985 7.04915C7.80595 7.03214 7.81579 7.01657 7.8287 7.0035L9.21158 5.59287C9.22576 5.57836 9.24332 5.56726 9.26284 5.56048C9.28236 5.5537 9.30328 5.55143 9.32389 5.55385C9.3445 5.55628 9.36422 5.56333 9.38144 5.57444C9.39866 5.58554 9.41289 5.60039 9.42296 5.61775L10.1414 6.85799C10.1871 6.93661 10.2539 7.00211 10.3349 7.04769C10.416 7.09327 10.5083 7.11727 10.6024 7.11719H12.4462C12.5176 7.11727 12.5882 7.10348 12.6538 7.07665C12.7195 7.04982 12.7787 7.01052 12.828 6.96113C12.8772 6.91174 12.9155 6.85329 12.9404 6.78933C12.9654 6.72536 12.9764 6.65722 12.973 6.58903C12.9592 6.31787 12.7149 6.10938 12.4314 6.10938Z" fill="#1D2E5B"/>
</symbol><symbol id="button-roll-up_icon" viewBox="0 0 9 9">
<path d="M7.875 1.125L1.125 7.875" stroke="#192144" stroke-linecap="round" stroke-linejoin="round"/>
<path d="M1.125 1.125L7.875 7.875" stroke="#192144" stroke-linecap="round" stroke-linejoin="round"/>
</symbol><symbol id="check-mark_icon" viewBox="0 0 9 9">
<path d="M2.83484 8.46392L0.388824 5.80546V5.44435V4.72213C0.388824 4.75169 0.388824 4.69256 0.388824 4.72213C0.388824 4.56696 0.388875 4.36102 0.388875 4.36102V3.63879L2.82803 5.99046C2.91165 6.07814 3.04776 6.07712 3.13138 5.98944L8.33331 0.388794V1.88575V2.55546C8.33331 2.91657 8.33331 2.91657 8.33331 2.91657L3.86155 7.69823L3.86253 7.69925L3.13819 8.4629C3.05457 8.55058 2.91845 8.55058 2.83484 8.46392Z" fill="#161C35"/>
</symbol><symbol id="countrie-filter_icon" viewBox="0 0 15 10">
<rect x="7.17395" width="7.82609" height="2" fill="#192144"/>
<rect x="7.17383" y="8" width="7.82609" height="2" fill="#192144"/>
<rect y="4" width="7.82609" height="2" fill="#192144"/>
<rect x="3.91309" width="1.95652" height="2" fill="#192144"/>
<rect x="3.91309" y="8" width="1.95652" height="2" fill="#192144"/>
<rect x="9.13037" y="4" width="1.95652" height="2" fill="#192144"/>
<rect width="2.6087" height="2" fill="#192144"/>
<rect y="8" width="2.6087" height="2" fill="#192144"/>
<rect x="12.3914" y="4" width="2.6087" height="2" fill="#192144"/>
</symbol><symbol id="delete-countrie_icon" viewBox="0 0 9 9">
<path d="M7.875 1.125L1.125 7.875" stroke="#AFB0B5" stroke-linecap="round" stroke-linejoin="round"/>
<path d="M1.125 1.125L7.875 7.875" stroke="#AFB0B5" stroke-linecap="round" stroke-linejoin="round"/>
</symbol><symbol id="handset_promo_icon" viewBox="0 0 17 17">
<path d="M11.9047 8.25661C11.9047 8.44223 12.0583 8.59411 12.2461 8.59411C12.4339 8.59411 12.5875 8.44223 12.5875 8.25661C12.5875 6.36324 11.0308 4.82424 9.11565 4.82424C8.9279 4.82424 8.77427 4.97612 8.77427 5.16174C8.77427 5.35074 8.9279 5.49924 9.11565 5.49924C10.6553 5.49924 11.9047 6.73786 11.9047 8.25661ZM9.11565 0.699982C8.9279 0.699982 8.77427 0.851861 8.77427 1.03748C8.77427 1.22312 8.9279 1.37498 9.11565 1.37498C12.9562 1.37498 16.0798 4.46312 16.0798 8.25661C16.0798 8.44223 16.23 8.59411 16.4212 8.59411C16.6089 8.59411 16.7626 8.44223 16.7626 8.25661C16.7626 4.0885 13.3317 0.699982 9.11565 0.699982ZM12.4509 11.8139L12.0037 12.0535C11.2493 12.4619 10.6622 13.5812 9.73116 12.7375L7.30011 10.3L5.20004 8.25661C4.14495 6.92348 5.32635 6.60623 5.73941 5.85699L5.98179 5.41825C6.25489 4.91873 6.35388 4.35849 6.27196 3.79823C6.19345 3.23799 5.93741 2.72836 5.52775 2.32336C5.02935 1.83062 4.36707 1.56062 3.66042 1.56062C2.95376 1.56062 2.28807 1.83062 1.78964 2.32336L1.61556 2.49886C0.693831 3.41012 0.588004 4.97948 1.31514 6.92348C2.0013 8.77973 3.3839 10.7912 5.20004 12.5867C7.96862 15.3239 11.0513 16.9 13.2634 16.9C14.1373 16.9 14.8781 16.6536 15.4039 16.1339L15.5814 15.9584C16.0764 15.469 16.3529 14.8142 16.3563 14.1089C16.3529 13.4204 16.0695 12.7454 15.5814 12.2627C14.7587 11.4494 13.4717 11.2671 12.4509 11.8139Z" fill="#161C35"/>
</symbol><symbol id="heart_icon" viewBox="0 0 12 12">
<path fill-rule="evenodd" clip-rule="evenodd" d="M6 4.66465L6.6705 3.25538C6.837 2.90641 7.12575 2.40462 7.5345 1.99894C7.9365 1.59955 8.418 1.32778 9 1.32778C10.257 1.32778 11.25 2.37233 11.25 3.62799C11.25 4.58194 10.8345 5.25546 9.849 6.28267C9.59625 6.54578 9.30825 6.83015 8.9895 7.14367C8.1585 7.96293 7.125 8.98226 6 10.3451C4.875 8.98226 3.8415 7.96293 3.0105 7.14367C2.69175 6.83015 2.403 6.54499 2.151 6.28267C1.1655 5.25546 0.75 4.58194 0.75 3.62799C0.75 2.37233 1.743 1.32778 3 1.32778C3.582 1.32778 4.0635 1.59955 4.4655 1.99894C4.87425 2.40462 5.163 2.90641 5.3295 3.25538L6 4.66465ZM6.294 11.1966C6.25788 11.2415 6.21286 11.2777 6.16209 11.3024C6.11131 11.3272 6.05599 11.34 6 11.34C5.94401 11.34 5.8887 11.3272 5.83792 11.3024C5.78714 11.2777 5.74212 11.2415 5.706 11.1966C4.50525 9.69832 3.4185 8.62699 2.52375 7.74551C0.975 6.21808 0 5.25782 0 3.62799C0 1.92253 1.3425 0.540039 3 0.540039C4.2 0.540039 5.03925 1.36717 5.553 2.12182C5.748 2.40935 5.8965 2.68585 6 2.90326C6.12975 2.63116 6.27918 2.36991 6.447 2.12182C6.96075 1.36638 7.8 0.540039 9 0.540039C10.6575 0.540039 12 1.92253 12 3.62799C12 5.25782 11.025 6.21808 9.47625 7.74551C8.5815 8.62778 7.49475 9.69911 6.294 11.1958V11.1966Z" fill="#192144"/>
</symbol><symbol id="next-mounth-button_icon" viewBox="0 0 10 19">
<path d="M1.06949 18.3693C1.16815 18.481 1.28536 18.5695 1.41439 18.63C1.54343 18.6904 1.68176 18.7216 1.82146 18.7216C1.96117 18.7216 2.0995 18.6904 2.22853 18.63C2.35757 18.5695 2.47477 18.481 2.57344 18.3693L9.63433 10.398C9.7131 10.3092 9.77559 10.2038 9.81823 10.0878C9.86086 9.97171 9.88281 9.84732 9.88281 9.72169C9.88281 9.59605 9.86086 9.47166 9.81823 9.35561C9.77559 9.23957 9.7131 9.13416 9.63433 9.04542L2.57344 1.07408C2.15709 0.60405 1.48584 0.60405 1.06949 1.07408C0.653145 1.54411 1.32374 2.3591 1.74009 2.82913L7.82453 9.72169L1.41439 16.972C1.00654 17.4324 0.653145 17.9089 1.06949 18.3693Z" fill="black"/>
</symbol><symbol id="phone_icon" viewBox="0 0 17 15">
<path fill-rule="evenodd" clip-rule="evenodd" d="M8.49995 0.0861511C5.7035 0.0861511 2.90033 0.558819 1.88322 1.50093C1.03934 2.28252 0.758038 3.66329 0.663214 4.53753C0.663214 4.53753 0.650146 4.62393 0.650146 4.66109C0.650146 5.00391 0.944447 5.27887 1.30427 5.27887C1.34678 5.27887 2.92002 5.15837 3.86851 5.08425C3.89134 5.08112 3.91434 5.07806 3.93716 5.07191C4.29043 5.0627 4.57505 4.7908 4.57505 4.45413L4.57822 3.237C4.57822 2.86014 4.90214 2.55737 5.3012 2.55737H11.6987C12.0978 2.55737 12.4218 2.86011 12.4218 3.237L12.425 4.45413C12.425 4.7908 12.7095 5.0627 13.0628 5.07191C13.0854 5.0781 13.1085 5.08112 13.1315 5.08425C14.0801 5.15834 15.6533 5.27887 15.6957 5.27887C16.0553 5.27887 16.3499 5.00391 16.3499 4.66109C16.3499 4.62393 16.3368 4.53753 16.3368 4.53753C16.2419 3.66329 15.9609 2.28255 15.117 1.50093C14.0996 0.558819 11.2964 0.0861511 8.49995 0.0861511ZM8.49995 8.11773C7.7771 8.11773 7.19164 8.67064 7.19164 9.35333C7.19164 10.036 7.7771 10.5889 8.49995 10.5889C9.22279 10.5889 9.80823 10.036 9.80823 9.35333C9.80823 8.67064 9.22279 8.11773 8.49995 8.11773ZM7.51873 5.33752V4.56528C7.51873 4.13902 7.15236 3.79304 6.70106 3.79304C6.24977 3.79304 5.8834 4.13905 5.8834 4.56528V5.33752L1.47095 9.7889C1.16689 10.07 0.977135 10.4622 0.977135 10.8948V12.1335C0.977135 12.8162 1.56264 13.3691 2.28545 13.3691H2.61254V14.1414C2.61254 14.5677 2.97895 14.9136 3.43025 14.9136C3.88154 14.9136 4.24792 14.5677 4.24792 14.1414V13.3691H12.752V14.1414C12.752 14.5677 13.1182 14.9136 13.5697 14.9136C14.021 14.9136 14.3873 14.5677 14.3873 14.1414V13.3691H14.7144C15.4373 13.3691 16.0227 12.8162 16.0227 12.1335V10.8948C16.0227 10.4622 15.833 10.07 15.5289 9.7889L11.1166 5.33752V4.56528C11.1166 4.13902 10.7502 3.79304 10.2989 3.79304C9.84757 3.79304 9.48124 4.13905 9.48124 4.56528V5.33752H7.51873ZM8.49995 6.8821C9.94564 6.8821 11.1166 7.98799 11.1166 9.35333C11.1166 10.7187 9.94567 11.8247 8.49995 11.8247C7.05426 11.8247 5.88336 10.7187 5.88336 9.35333C5.88336 7.98795 7.05426 6.8821 8.49995 6.8821Z" fill="#FFD74B"/>
</symbol><symbol id="pin" viewBox="0 0 17 21">
<path d="M8.5 0C4.15169 0 0.625 3.52669 0.625 7.875C0.625 12.9334 4.42846 15.1449 5.26923 16.1538C7.28846 18.5769 7.40257 21 8.5 21C9.59743 21 9.71154 18.5769 11.7308 16.1538C12.5715 15.1449 16.375 12.9334 16.375 7.875C16.375 3.52669 12.8483 0 8.5 0ZM8.5 13.125C5.60069 13.125 3.25 10.7743 3.25 7.875C3.25 4.97569 5.60069 2.625 8.5 2.625C11.3993 2.625 13.75 4.97569 13.75 7.875C13.75 10.7743 11.3993 13.125 8.5 13.125ZM8.5 5.25C7.051 5.25 5.875 6.426 5.875 7.875C5.875 9.324 7.051 10.5 8.5 10.5C9.949 10.5 11.125 9.324 11.125 7.875C11.125 6.426 9.949 5.25 8.5 5.25Z" fill="#FFD74B"/>
</symbol><symbol id="post_icon" viewBox="0 0 19 13">
<path fill-rule="evenodd" clip-rule="evenodd" d="M16.1393 10.4663L11.8089 6.5L16.1393 2.53365L15.5488 1.90264L9.24997 7.67188L2.95117 1.90264L2.36066 2.53365L6.69108 6.5L2.36066 10.4663L2.95117 11.0974L7.33081 7.08594L9.24997 8.84375L11.1691 7.08594L15.5488 11.0974L16.1393 10.4663ZM1.57593 0.25C0.76692 0.25 0.111084 0.948839 0.111084 1.80786V11.1921C0.111084 12.0525 0.7616 12.75 1.57593 12.75H16.924C17.733 12.75 18.3889 12.0512 18.3889 11.1921V1.80786C18.3889 0.947478 17.7383 0.25 16.924 0.25H1.57593Z" fill="#FFD74B"/>
</symbol><symbol id="post_promo_icon" viewBox="0 0 17 14">
<path d="M1.0166 2.32528L7.7666 6.55572C7.9934 6.69747 8.2868 6.76467 8.582 6.76467C8.8772 6.76467 9.1706 6.69747 9.3974 6.55572L16.1474 2.32528C16.5875 2.04913 17.0033 0.974976 16.196 0.974976H0.968901C0.161601 0.974976 0.577401 2.04913 1.0166 2.32528ZM16.3517 4.63842L9.3974 8.86677C9.0914 9.05367 8.8772 9.07572 8.582 9.07572C8.2868 9.07572 8.0726 9.05367 7.7666 8.86677C7.4606 8.67987 1.3469 4.94082 0.847401 4.63737C0.496401 4.42317 0.500001 4.67412 0.500001 4.86732V12.525C0.500001 12.966 1.0094 13.575 1.4 13.575H15.8C16.1906 13.575 16.7 12.966 16.7 12.525V4.86837C16.7 4.67517 16.7036 4.42422 16.3517 4.63842Z" fill="#161C35"/>
</symbol><symbol id="rates-button-icon" viewBox="0 0 28 28">
<path d="M23.3755 23.2418V19.8933C23.3755 18.9558 23.2416 18.0182 22.7058 17.0806C22.1701 16.143 21.5004 15.3394 20.5628 14.8036C19.6252 14.1339 17.6161 14 16.6786 14L14.5355 16.277L15.3392 18.0182V22.0364L13.9998 23.5097L12.6604 22.0364V18.0182L13.598 16.277L11.321 14C10.2495 14 8.24039 14.1339 7.30281 14.8036C6.36524 15.3394 5.82948 16.143 5.29372 17.0806C4.75796 18.0182 4.62402 18.8218 4.62402 19.8933V23.2418C4.62402 23.2418 8.10645 24.7151 13.9998 24.7151C19.8931 24.7151 23.3755 23.2418 23.3755 23.2418Z" fill="#132576"/>
<path d="M13.9998 3.4187C11.455 3.4187 9.98165 5.82961 10.3835 8.5084C10.7853 11.1872 12.1247 13.0623 13.9998 13.0623C15.875 13.0623 17.2144 11.1872 17.6162 8.5084C18.018 5.69567 16.5447 3.4187 13.9998 3.4187Z" fill="#132576"/>
</symbol><symbol id="run_icon" viewBox="0 0 18 17">
<path opacity="0.15" d="M12.2706 4.09375C13.0464 4.09375 13.6754 3.49213 13.6754 2.75C13.6754 2.00787 13.0464 1.40625 12.2706 1.40625C11.4947 1.40625 10.8658 2.00787 10.8658 2.75C10.8658 3.49213 11.4947 4.09375 12.2706 4.09375Z" fill="#1D2E5B"/>
<path opacity="0.15" d="M11.4116 7.43228C11.5728 7.66211 11.8041 7.83891 12.074 7.93868C12.3439 8.03844 12.6394 8.05634 12.9203 7.98993L15.2495 7.43295L14.9103 6.12951L12.5811 6.68649L11.6124 5.29773C11.4055 5.00114 11.0843 4.79488 10.719 4.72395L8.01748 4.2066C7.71526 4.14859 7.40148 4.18736 7.1246 4.31693C6.84771 4.4465 6.62312 4.65966 6.48552 4.92349L5.32091 7.15143L6.57753 7.75276L7.74214 5.52415L9.12379 5.78887L5.55131 11.4844H2.4368V12.8281H5.55131C6.04159 12.8281 6.50308 12.5782 6.75595 12.1757L8.10318 10.0284L11.734 10.7231L13.0095 14.3842L14.3413 13.9589L13.0664 10.2985C12.9878 10.0738 12.8486 9.87284 12.6628 9.71596C12.4771 9.55909 12.2515 9.45179 12.0086 9.4049L9.87397 8.99707L11.1186 7.01235L11.4116 7.43228V7.43228Z" fill="#1D2E5B"/>
</symbol><symbol id="select-button_icon" viewBox="0 0 12 9">
<path d="M0.63847 1.09805C0.56899 1.17667 0.513866 1.27007 0.476254 1.37289C0.438641 1.47571 0.419281 1.58595 0.419281 1.69727C0.419281 1.8086 0.438641 1.91883 0.476254 2.02165C0.513866 2.12448 0.56899 2.21787 0.63847 2.29649L5.59841 7.92308C5.65363 7.98585 5.71922 8.03565 5.79142 8.06963C5.86363 8.1036 5.94103 8.12109 6.0192 8.12109C6.09737 8.12109 6.17478 8.1036 6.24698 8.06963C6.31918 8.03565 6.38477 7.98585 6.43999 7.92308L11.3999 2.29649C11.6924 1.96472 11.6924 1.42982 11.3999 1.09805C11.1075 0.766278 10.8004 1.04112 10.5079 1.37289L7.9079 4.3364L5.99993 6.42412L1.19995 1.09079C1.19995 1.09079 0.924965 0.766278 0.63847 1.09805Z" fill="black"/>
</symbol><symbol id="sprite">
    <symbol id="academy" xmlns="http://www.w3.org/2000/svg" viewBox="0 0 27 34"><path d="M13.64.1h-.14L0 1.46v24.1l13.5 7.83L27 25.57V1.47L13.64.1zm11.6 24.49l-11.74 6.8-11.73-6.8V14.7l11.68 6.77.02 1.23-8.02-4.65v1.2l8.04 4.71.02 1.26-8.05-4.66v1.2l8.04 4.71 8.12-4.73v-5.1l3.62-2.1v10.04zm0-11.33L22 15.1l-1.48.86-7.06-4.1-.01 1.2 6.04 3.5-.06.03-.13.07-.86.49-4.98-2.9-.01 1.2 3.93 2.29-.93.6h-.02l-2.97-1.7-.01 1.2 1.94 1.11-1.98 1.17L1.8 13.38l11.63-6.81 11.8 6.7zm0-1.2L13.43 5.3 1.77 12.06V3L13.5 1.8 25.23 3v9.05z"/></symbol>
    <symbol id="airplane" xmlns="http://www.w3.org/2000/svg" viewBox="0 0 18 20"><path d="M15.78.1c-.73.17-1.46.34-1.73.82l-2.1 4.2L.62 7.8.17 9.15l8.66.82-1.47 3.63-3.28.78-.83 1.43 2.37.26.27 1.17c.12.41.55.69.9.6l1.1-.26 1.27 2.16.83-1.43-.81-3.5 2.37-3.03 4.54 7.96.91-1.04-2.79-12.07 2.57-3.9c.27-.47.1-1.25-.09-2.03-.09-.39-.54-.7-.9-.6z"/></symbol>
    <symbol id="bicycle" xmlns="http://www.w3.org/2000/svg" viewBox="0 0 25 24"><path d="M18.3 21a4.21 4.21 0 01-3.92-2.66 4.37 4.37 0 01.92-4.7 4.23 4.23 0 017.26 3.05c0 1.14-.45 2.24-1.25 3.05-.8.8-1.88 1.26-3 1.26zm0-7.13a2.75 2.75 0 00-2.55 1.74 2.85 2.85 0 00.6 3.07 2.76 2.76 0 004.73-2c0-.74-.3-1.45-.81-1.98a2.76 2.76 0 00-1.96-.82zM6.1 21a4.21 4.21 0 01-3.92-2.66 4.37 4.37 0 01.92-4.7 4.23 4.23 0 017.26 3.05c0 1.14-.45 2.24-1.25 3.05-.8.8-1.88 1.26-3 1.26zm0-7.13a2.75 2.75 0 00-2.56 1.74 2.85 2.85 0 00.6 3.07 2.76 2.76 0 004.74-2c0-.74-.3-1.45-.82-1.98a2.76 2.76 0 00-1.96-.82zM15.16 6a1.46 1.46 0 001.37-.93c.08-.18.11-.38.11-.57a1.5 1.5 0 00-.9-1.39 1.46 1.46 0 00-1.93.81 1.52 1.52 0 00.79 1.96c.18.08.37.12.56.12z"/><path d="M17.36 9h-2.02a.18.18 0 01-.16-.1L13.7 6.18a1.45 1.45 0 00-1.05-.77 1.41 1.41 0 00-1.23.4L8.2 9.11c-.27.28-.43.66-.43 1.05 0 .82.58 1.1.85 1.27a146.32 146.32 0 012.82 1.72c.02.02.03.06.03.09v3.24c0 .4.3.75.7.77a.73.73 0 00.72-.45c.04-.1.06-.2.06-.3v-4.03a.76.76 0 00-.31-.61l-1.71-1.25a.19.19 0 01-.08-.13.19.19 0 01.05-.15l1.94-2.1a.19.19 0 01.16-.06.18.18 0 01.14.1l1 1.84a.74.74 0 00.65.39h2.6a.73.73 0 00.53-.23.75.75 0 00-.56-1.27z"/></symbol>
    <symbol id="buss" xmlns="http://www.w3.org/2000/svg" viewBox="0 0 18 21"><path d="M4.34 13.95c0-.38-.14-.7-.42-.97a1.4 1.4 0 00-1-.4c-.4 0-.73.13-1 .4-.28.27-.42.59-.42.97s.14.7.42.97c.27.27.6.4 1 .4s.73-.13 1-.4c.28-.27.42-.6.42-.97zm11.36 0c0-.38-.14-.7-.42-.97a1.4 1.4 0 00-1-.4c-.4 0-.73.13-1 .4-.28.27-.42.59-.42.97s.14.7.41.97c.28.27.61.4 1 .4.4 0 .73-.13 1.01-.4s.42-.6.42-.97zm-.51-4.24l-.8-4.12a.7.7 0 00-.25-.4.7.7 0 00-.45-.16H3.5a.7.7 0 00-.45.16.7.7 0 00-.25.4l-.8 4.12c-.04.21.02.4.16.56.14.17.32.25.54.25h11.78c.22 0 .4-.08.54-.25.14-.16.2-.35.16-.56zm-2.51-6.56a.52.52 0 00-.53-.51h-7.1a.52.52 0 00-.38.14c-.1.1-.15.23-.15.37 0 .14.05.26.15.36.1.1.23.15.38.15h7.1a.52.52 0 00.53-.51zm4.43 7.77v6.46H15.7v1.37c0 .38-.14.7-.42.97-.28.27-.61.4-1 .4-.4 0-.73-.13-1-.4a1.3 1.3 0 01-.42-.97v-1.37H4.34v1.37c0 .38-.14.7-.42.97-.27.27-.6.4-1 .4s-.73-.13-1-.4a1.3 1.3 0 01-.42-.97v-1.37H.08v-6.46c0-.8.1-1.6.28-2.4L1.5 3.67c.07-.55.43-1.04 1.08-1.47.66-.42 1.5-.73 2.55-.95A17.3 17.3 0 018.6.92c1.26 0 2.42.1 3.46.32 1.05.22 1.9.53 2.55.95.66.43 1.02.92 1.09 1.47l1.16 4.87c.17.73.25 1.52.25 2.39z"/></symbol>
    <symbol id="facebook" xmlns="http://www.w3.org/2000/svg" viewBox="0 0 11 21"><path d="M7.49 20.81H2.13v-9.67H0V6.35h2.07c-.16-2.17.23-3.75 1.2-4.83A4.88 4.88 0 016.86 0h3.75v4.61H7.67a4.7 4.7 0 00-.2 1.74h3.15v4.79H7.46l.02 9.67zM3.32 19.7h2.97V10h3.14V7.5H6.29v-.57c0-1.5 0-2.84.78-3.34l.15-.1h2.2V1.12H6.9a3.82 3.82 0 00-2.74 1.13c-.79.92-1.11 2.47-.87 4.6l.08.63h-2.2V10h2.15v9.68z"/></symbol>
    <symbol id="filter" xmlns="http://www.w3.org/2000/svg" viewBox="0 0 15 10"><path d="M7.17 0H15v2H7.17zM7.17 8H15v2H7.17zM0 4h7.83v2H0zM3.91 0h1.96v2H3.91zM3.91 8h1.96v2H3.91zM9.13 4h1.96v2H9.13zM0 0h2.61v2H0zM0 8h2.61v2H0zM12.39 4H15v2h-2.61z"/></symbol>
    <symbol id="heart" xmlns="http://www.w3.org/2000/svg" viewBox="0 0 21 19"><path d="M10.26 7.12l1.12-2.34a7.7 7.7 0 011.44-2.1 3.44 3.44 0 012.44-1.12 3.8 3.8 0 013.76 3.84c0 1.59-.7 2.7-2.34 4.42-.42.44-.9.91-1.43 1.44a67.67 67.67 0 00-5 5.33 67.65 67.65 0 00-4.98-5.33c-.54-.53-1.02-1-1.44-1.44C2.2 8.11 1.5 7 1.5 5.4a3.8 3.8 0 013.76-3.84c.97 0 1.77.46 2.44 1.12a7.7 7.7 0 011.45 2.1l1.12 2.34zm.49 10.9a.65.65 0 01-.5.23.62.62 0 01-.48-.24c-2-2.5-3.82-4.28-5.32-5.75C1.87 9.7.25 8.1.25 5.4a5.08 5.08 0 015-5.15c2 0 3.4 1.38 4.26 2.64.33.48.57.94.75 1.3.21-.45.46-.89.74-1.3.86-1.26 2.26-2.64 4.26-2.64 2.77 0 5.01 2.3 5.01 5.15 0 2.71-1.63 4.31-4.21 6.86-1.5 1.47-3.3 3.26-5.31 5.75z" clip-rule="evenodd"/></symbol>
    <symbol id="hike-man" xmlns="http://www.w3.org/2000/svg" viewBox="0 0 21 24"><path d="M14.98 5.76c.95 0 1.72-.86 1.72-1.92s-.77-1.92-1.72-1.92-1.73.86-1.73 1.92.78 1.92 1.73 1.92zM13.92 10.53c.2.33.48.58.81.72.34.15.7.17 1.04.08l2.86-.8-.42-1.86-2.85.8-1.2-1.99a1.73 1.73 0 00-1.09-.82l-3.3-.74a1.56 1.56 0 00-1.1.16c-.34.18-.61.49-.78.87l-1.43 3.18 1.54.86L9.43 7.8l1.69.38-4.38 8.14H2.93v1.92h3.81c.6 0 1.17-.36 1.48-.93l1.65-3.07 4.45 1 1.56 5.22 1.63-.6-1.56-5.23c-.1-.33-.27-.61-.5-.84-.22-.22-.5-.37-.8-.44l-2.61-.58 1.52-2.84.36.6z"/></symbol>
    <symbol id="instagram" xmlns="http://www.w3.org/2000/svg" viewBox="0 0 18 18"><g><path d="M12.96 1.8a3.25 3.25 0 013.24 3.24v7.92a3.25 3.25 0 01-3.24 3.24H5.04a3.25 3.25 0 01-3.23-3.24V5.04A3.25 3.25 0 015.04 1.8h7.92zm0-1.08H5.04A4.32 4.32 0 00.72 5.04v7.92a4.32 4.32 0 004.32 4.32h7.92a4.32 4.32 0 004.32-4.32V5.04A4.32 4.32 0 0012.96.72z"/><path d="M9 5.82a3.19 3.19 0 110 6.38 3.19 3.19 0 010-6.38zm0-1.08a4.27 4.27 0 100 8.54 4.27 4.27 0 000-8.54zM13.43 5.56a.96.96 0 100-1.93.96.96 0 000 1.93z"/></g></symbol>
    <symbol id="mail" xmlns="http://www.w3.org/2000/svg" viewBox="0 0 19 13"><path fill-rule="evenodd" d="M16.14 10.47L11.8 6.5l4.33-3.97-.6-.63-6.29 5.77-6.3-5.77-.59.63L6.7 6.5l-4.33 3.97.6.63 4.37-4.01 1.92 1.75 1.92-1.75 4.38 4 .59-.62zM1.58.25C.77.25.1.95.1 1.81v9.38c0 .86.65 1.56 1.47 1.56h15.34c.81 0 1.47-.7 1.47-1.56V1.81c0-.86-.65-1.56-1.47-1.56H1.58z" clip-rule="evenodd"/></symbol>
    <symbol id="map-pin" xmlns="http://www.w3.org/2000/svg" viewBox="0 0 17 21"><path d="M8.5 0A7.88 7.88 0 00.62 7.88c0 5.05 3.8 7.26 4.65 8.27C7.29 18.58 7.4 21 8.5 21s1.21-2.42 3.23-4.85c.84-1 4.64-3.22 4.64-8.27A7.88 7.88 0 008.5 0zm0 13.13a5.25 5.25 0 110-10.5 5.25 5.25 0 010 10.5zm0-7.88a2.63 2.63 0 100 5.25 2.63 2.63 0 000-5.25z"/></symbol>
    <symbol id="phone" xmlns="http://www.w3.org/2000/svg" viewBox="0 0 17 15"><path fill-rule="evenodd" d="M8.5.09C5.7.09 2.9.56 1.88 1.5 1.04 2.28.76 3.66.66 4.54l-.01.12c0 .34.3.62.65.62l2.57-.2h.07c.35-.02.64-.29.64-.63V3.24c0-.38.32-.68.72-.68h6.4c.4 0 .72.3.72.68v1.21c0 .34.29.61.64.62l.07.01 2.57.2c.36 0 .65-.28.65-.62l-.01-.12c-.1-.88-.38-2.26-1.22-3.04C14.1.56 11.3.1 8.5.1zm0 8.03c-.72 0-1.3.55-1.3 1.23 0 .69.58 1.24 1.3 1.24.72 0 1.3-.55 1.3-1.24 0-.68-.58-1.23-1.3-1.23zm-.98-2.78v-.77a.8.8 0 00-.82-.78.8.8 0 00-.82.78v.77l-4.4 4.45c-.31.28-.5.67-.5 1.1v1.24c0 .69.58 1.24 1.3 1.24h.33v.77c0 .43.37.77.82.77a.8.8 0 00.82-.77v-.77h8.5v.77c0 .43.37.77.82.77a.8.8 0 00.82-.77v-.77h.32c.73 0 1.31-.55 1.31-1.24V10.9c0-.43-.19-.82-.5-1.1l-4.4-4.45v-.77a.8.8 0 00-.82-.78.8.8 0 00-.82.78v.77H7.52zm.98 1.54c1.45 0 2.62 1.1 2.62 2.47a2.55 2.55 0 01-2.62 2.47 2.55 2.55 0 01-2.62-2.47A2.55 2.55 0 018.5 6.88z" clip-rule="evenodd"/></symbol>
    <symbol id="user" xmlns="http://www.w3.org/2000/svg" viewBox="0 0 12 12"><path d="M3.38 2.93A2.7 2.7 0 006 5.69a2.7 2.7 0 002.63-2.76A2.7 2.7 0 006 .17a2.7 2.7 0 00-2.63 2.76zm7.29 8.9h.58v-.61a4.2 4.2 0 00-4.08-4.3H4.83a4.2 4.2 0 00-4.08 4.3v.61h9.92z"/></symbol>
    <symbol id="VK" xmlns="http://www.w3.org/2000/svg" viewBox="0 0 23 12"><path d="M17.77 11.83a2.98 2.98 0 01-1.55-.47 7.56 7.56 0 01-1.32-1.15c-.32-.33-.87-.88-1.07-.88-.21 0-.36.69-.35 1.18 0 .33-.12.66-.35.9-.26.22-.57.35-.9.38H10.8c-2.05-.05-4-.85-5.51-2.25C2.56 7 .2 2.18.12 1.97a1.01 1.01 0 01.1-1.1C.52.61.88.48 1.25.5h3.12c.24.04.48.13.7.26.2.14.36.33.46.55.32.7.7 1.36 1.1 2 .97 1.5 1.4 1.85 1.56 1.92.17-.7.22-1.43.14-2.15.03-.33-.03-.66-.15-.96a.98.98 0 00-.58-.22l-.54-.51c-.1-.5.44-.93.82-1.1A6.38 6.38 0 0110.2.02h.52c.54-.01 1.07.04 1.6.15 1.26.27 1.21 1.3 1.16 2.49 0 .34-.03.75-.03 1.21v.36c-.03.33-.01.66.06.98a6.8 6.8 0 001.54-1.86c.43-.67.8-1.38 1.13-2.1a1.18 1.18 0 011.18-.72h3.46c.74 0 1.18.22 1.36.64.18.42.12 1.25-1.75 3.46l-.74.85a5.5 5.5 0 00-.92 1.19c.28.32.6.6.95.85.85.65 1.6 1.43 2.22 2.3a1.2 1.2 0 01.2 1.27 1.71 1.71 0 01-1.4.75l-2.81.03-.17-.03zM13.83 8.2c.66 0 1.24.6 1.86 1.22.33.37.7.7 1.11.97.31.21.67.32 1.04.32h.07l2.82-.04c.14 0 .28-.04.4-.1l-.07-.12a9.86 9.86 0 00-1.99-2.04c-.88-.75-1.33-1.1-1.39-1.68-.05-.58.37-1.08 1.2-2.04l.74-.83a8.05 8.05 0 001.52-2.21 4.16 4.16 0 00-.5 0H17.4a.4.4 0 00-.18 0c-.34.8-.75 1.56-1.22 2.29-1.4 2.11-2.06 2.4-2.53 2.4a.88.88 0 01-.41-.1c-.75-.44-.75-1.39-.7-2.08v-.32c0-.49 0-.9.03-1.27.06-1.26 0-1.27-.28-1.33-.45-.1-.91-.14-1.38-.12h-.5c-.48-.01-.95.01-1.42.07.07.05.13.12.19.19.3.49.46 1.06.43 1.63.1 1.24.05 2.85-.74 3.24-.14.07-.29.1-.44.1-.7 0-1.38-.66-2.54-2.44-.45-.69-.85-1.4-1.2-2.14l-.05-.08a.9.9 0 00-.24-.08H1.2c.44.92 2.51 4.97 4.84 7.09 1.3 1.2 2.99 1.9 4.76 1.97h1.37a.74.74 0 00.2-.07v-.07c0-.2 0-1.95 1.17-2.25.1-.04.19-.06.29-.08z"/></symbol>
    <symbol id="arrow" xmlns="http://www.w3.org/2000/svg" viewBox="0 0 8 11"><line x1="50%" x2="50%" y2="90%" fill="none" stroke-linecap="round"/><line x1="10%" x2="50%" y1="60%" y2="90%" fill="none" stroke-linecap="round"/><line x1="90%" x2="50%" y1="60%" y2="90%" fill="none" stroke-linecap="round"/></symbol>
    <symbol id="back" xmlns="http://www.w3.org/2000/svg" viewBox="0 0 32 16"><path fill-rule="evenodd" d="M4 16h24a4 4 0 004-4V7a4 4 0 00-4-4H4v2h24a2 2 0 012 2v5a2 2 0 01-2 2H4v2z" clip-rule="evenodd"/><path d="M0 4L9 .54v6.92L0 4z"/></symbol>
    <symbol id="check" xmlns="http://www.w3.org/2000/svg" viewBox="0 0 9 9"><path d="M2.83 8.46L.4 5.81V4.72c0 .03 0-.03 0 0V3.64l2.44 2.35a.2.2 0 00.3 0l5.2-5.6v2.53L3.86 7.7l-.72.76a.2.2 0 01-.3 0z"/></symbol>
    <symbol id="corner" xmlns="http://www.w3.org/2000/svg" viewBox="0 0 10 19"><path d="M1.07 18.37c.1.11.22.2.34.26a.96.96 0 00.82 0c.13-.06.24-.15.34-.26l7.06-7.97c.08-.1.15-.2.19-.31a1.06 1.06 0 00-.19-1.04L2.57 1.07a.98.98 0 00-1.5 0c-.42.47.25 1.29.67 1.76l6.08 6.9-6.4 7.24c-.41.46-.77.94-.35 1.4z"/></symbol>
    <symbol id="delete" xmlns="http://www.w3.org/2000/svg" viewBox="0 0 9 9"><path stroke-linecap="round" stroke-linejoin="round" d="M7.88 1.13L1.13 7.88M1.13 1.13l6.75 6.75"/></symbol>
    <symbol id="handset" xmlns="http://www.w3.org/2000/svg" viewBox="0 0 16 18"><path d="M11.1 8.46c0 .18.16.33.35.33.18 0 .34-.15.34-.33 0-1.9-1.56-3.44-3.47-3.44a.34.34 0 00-.35.34c0 .2.16.34.35.34a2.78 2.78 0 012.78 2.76zM8.32.9a.34.34 0 00-.35.34c0 .18.16.33.35.33a6.93 6.93 0 016.96 6.89c0 .18.15.33.34.33.19 0 .34-.15.34-.33A7.61 7.61 0 008.32.9zm3.33 11.11l-.45.24c-.75.41-1.34 1.53-2.27.69L6.5 10.5 4.4 8.46c-1.06-1.34.13-1.65.54-2.4l.24-.44a2.57 2.57 0 00-.45-3.1c-.5-.49-1.16-.76-1.87-.76-.7 0-1.37.27-1.87.76l-.17.18c-.93.91-1.03 2.48-.3 4.42A16.39 16.39 0 004.4 12.8c2.77 2.73 5.85 4.31 8.06 4.31.88 0 1.62-.25 2.14-.77l.18-.17a2.6 2.6 0 000-3.7c-.82-.81-2.1-1-3.13-.45z"/></symbol>
    <symbol id="mail-smal" xmlns="http://www.w3.org/2000/svg" viewBox="0 0 16 14"><path d="M1.26 2.6l6 3.76c.2.13.46.19.72.19.27 0 .53-.06.73-.19l6-3.76c.39-.25.76-1.2.04-1.2H1.22c-.72 0-.35.95.04 1.2zm13.63 2.06L8.71 8.4a1.2 1.2 0 01-.73.2 1.2 1.2 0 01-.72-.2L1.1 4.66c-.31-.2-.31.03-.31.2v6.8c0 .4.45.94.8.94h12.8c.35 0 .8-.54.8-.93v-6.8c0-.18 0-.4-.3-.21z"/></symbol>
    <symbol id="plus" xmlns="http://www.w3.org/2000/svg" viewBox="0 0 14 14"><path stroke-width="2" d="M7 0v14M0 7h14"/></symbol>
    <symbol id="rates" xmlns="http://www.w3.org/2000/svg" viewBox="0 0 28 28"><path d="M23.38 23.24V19.9a5.84 5.84 0 00-2.81-5.09c-.94-.67-2.95-.8-3.9-.8l-2.13 2.28.8 1.74v4.02L14 23.5l-1.34-1.47v-4.02l.94-1.74L11.32 14c-1.07 0-3.08.13-4.02.8a5.53 5.53 0 00-2 2.28 5.15 5.15 0 00-.68 2.81v3.35s3.49 1.48 9.38 1.48c5.9 0 9.38-1.48 9.38-1.48zM14 3.42c-2.54 0-4.02 2.41-3.62 5.09.4 2.68 1.74 4.55 3.62 4.55 1.88 0 3.21-1.87 3.62-4.55.4-2.81-1.08-5.1-3.62-5.1z"/></symbol>
</symbol><symbol id="user_icon" viewBox="0 0 12 12">
<path opacity="0.4" d="M3.375 2.92978C3.375 4.45321 4.55275 5.69294 6 5.69294C7.44725 5.69294 8.625 4.45321 8.625 2.92978C8.625 1.40636 7.44725 0.166626 6 0.166626C4.55275 0.166626 3.375 1.40636 3.375 2.92978ZM10.6667 11.8333H11.25V11.2193C11.25 8.8497 9.41775 6.92101 7.16667 6.92101H4.83333C2.58167 6.92101 0.75 8.8497 0.75 11.2193V11.8333H10.6667Z" fill="#192144"/>
</symbol></svg>